<svg width="14" height="11" viewBox="0 0 14 11" fill="none" xmlns="http://www.w3.org/2000/svg">
<path d="M12.5446 0H1.45545C0.669967 0 0 0.684444 0 1.54V9.46C0 10.2911 0.646865 11 1.45545 11H12.5446C13.33 11 14 10.3156 14 9.46V1.51556C14 0.684444 13.33 0 12.5446 0ZM12.5446 1.1H12.6139L7 4.91333L1.38614 1.1H12.5446ZM12.5446 9.85111H1.45545C1.22442 9.85111 1.0396 9.65556 1.0396 9.41111V2.17556L6.44554 5.84222C6.60726 5.96444 6.79208 6.01333 6.9769 6.01333C7.16172 6.01333 7.34653 5.96444 7.50825 5.84222L12.9142 2.17556V9.43556C12.9604 9.68 12.7756 9.85111 12.5446 9.85111Z" fill="black"/>
</svg>
