<svg width="14" height="13" viewBox="0 0 14 13" fill="none" xmlns="http://www.w3.org/2000/svg">
<path d="M10.8523 13C8.97532 13 6.31051 11.6959 3.85425 9.44733C0.517447 6.34437 -0.89606 2.88164 0.586964 1.35265C0.65648 1.28519 0.749169 1.21773 0.841858 1.17276L2.71881 0.138443C3.20543 -0.13138 3.80791 0.00353122 4.13232 0.453236L5.49948 2.342C5.66169 2.56685 5.7312 2.83667 5.66169 3.10649C5.61534 3.35383 5.45314 3.57868 5.22141 3.73608L4.41038 4.25324C5.03604 5.13017 6.72761 7.31123 9.41559 8.86272C9.43876 8.8852 9.46193 8.86272 9.46193 8.86272L10.0412 8.09822C10.3657 7.671 10.9913 7.55857 11.4779 7.85088L13.5171 9.11005C14.0037 9.40236 14.1427 10.0095 13.8415 10.4817L12.7292 12.213C12.6597 12.303 12.5902 12.3929 12.5207 12.4604C12.1036 12.8201 11.5243 13 10.8523 13ZM3.25177 1.01537L1.35165 2.04969C0.471102 2.97158 1.5602 5.91715 4.59576 8.70532C7.67767 11.5385 10.8523 12.5503 11.8718 11.6959L12.9841 9.96449L10.945 8.70532H10.8986L10.3193 9.46982C9.99489 9.89704 9.36925 10.0095 8.9058 9.73964C6.00927 8.05325 4.20183 5.71478 3.55301 4.79289C3.39081 4.56803 3.34446 4.29821 3.39081 4.05087C3.43715 3.78105 3.59936 3.5562 3.83108 3.42129L4.64211 2.90413L3.29812 1.03785C3.27494 1.03785 3.25177 1.01537 3.25177 1.01537Z" fill="black"/>
</svg>
